<svg width="36" height="36" viewBox="0 0 36 36" fill="none" xmlns="http://www.w3.org/2000/svg">
<g id="dashboardIcon(taskManagement) 1">
<g id="Page-1">
<g id="Dribbble-Light-Preview">
<g id="icons">
<path id="gallery_grid_view-[#1405]" fill-rule="evenodd" clip-rule="evenodd" d="M13.9 27.7H10.45C9.81519 27.7 9.30001 27.1848 9.30001 26.55C9.30001 25.9152 9.81519 25.4 10.45 25.4H13.9C14.5348 25.4 15.05 25.9152 15.05 26.55C15.05 27.1848 14.5348 27.7 13.9 27.7ZM15.05 23.1H9.30001C8.02926 23.1 7 24.1292 7 25.4V27.7C7 28.9707 8.02926 30 9.30001 30H15.05C16.3208 30 17.35 28.9707 17.35 27.7V25.4C17.35 24.1292 16.3208 23.1 15.05 23.1ZM26.55 11.6H23.1C22.4652 11.6 21.95 11.0848 21.95 10.45C21.95 9.8152 22.4652 9.3 23.1 9.3H26.55C27.1848 9.3 27.7 9.8152 27.7 10.45C27.7 11.0848 27.1848 11.6 26.55 11.6ZM27.7 7H21.95C20.6792 7 19.65 8.02925 19.65 9.3V11.6C19.65 12.8707 20.6792 13.9 21.95 13.9H27.7C28.9707 13.9 30 12.8707 30 11.6V9.3C30 8.02925 28.9707 7 27.7 7ZM27.7 26.55C27.7 27.1848 27.1848 27.7 26.55 27.7H23.1C22.4652 27.7 21.95 27.1848 21.95 26.55V19.65C21.95 19.0152 22.4652 18.5 23.1 18.5H26.55C27.1848 18.5 27.7 19.0152 27.7 19.65V26.55ZM27.7 16.2H21.95C20.6792 16.2 19.65 17.2292 19.65 18.5V27.7C19.65 28.9707 20.6792 30 21.95 30H27.7C28.9707 30 30 28.9707 30 27.7V18.5C30 17.2292 28.9707 16.2 27.7 16.2ZM15.05 17.35C15.05 17.9848 14.5348 18.5 13.9 18.5H10.45C9.81519 18.5 9.30001 17.9848 9.30001 17.35V10.45C9.30001 9.8152 9.81519 9.3 10.45 9.3H13.9C14.5348 9.3 15.05 9.8152 15.05 10.45V17.35ZM15.05 7H9.30001C8.02926 7 7 8.02925 7 9.3V18.5C7 19.7708 8.02926 20.8 9.30001 20.8H15.05C16.3208 20.8 17.35 19.7708 17.35 18.5V9.3C17.35 8.02925 16.3208 7 15.05 7Z" fill="#7AA5D2"/>
</g>
</g>
</g>
</g>
</svg>
