<svg xmlns="http://www.w3.org/2000/svg" width="36" height="35" viewBox="0 0 36 35" fill="none">
  <path d="M20.5172 29H8.95269C8.43501 28.9994 7.93868 28.7821 7.57261 28.3957C7.20654 28.0093 7.00061 27.4854 7 26.9389V7.06109C7.00061 6.51462 7.20654 5.99071 7.57261 5.60432C7.93868 5.21792 8.43501 5.00059 8.95269 5H20.5172C21.0348 5.0006 21.5311 5.21795 21.8971 5.60436C22.2631 5.99076 22.469 6.51466 22.4695 7.06109V12.796C22.4695 12.9034 22.4291 13.0063 22.3572 13.0822C22.2853 13.1581 22.1878 13.2007 22.0861 13.2007C21.9845 13.2007 21.887 13.1581 21.8151 13.0822C21.7432 13.0063 21.7028 12.9034 21.7028 12.796V7.06109C21.7024 6.72925 21.5774 6.41111 21.3552 6.17645C21.1329 5.94179 20.8315 5.80976 20.5172 5.80934H8.95269C8.63828 5.80969 8.33683 5.94167 8.1145 6.17634C7.89216 6.41101 7.76708 6.72919 7.7667 7.06109V26.9389C7.76708 27.2708 7.89216 27.589 8.1145 27.8237C8.33683 28.0583 8.63828 28.1903 8.95269 28.1907H20.5172C20.8315 28.1903 21.1329 28.0582 21.3552 27.8235C21.5774 27.5889 21.7024 27.2708 21.7028 26.9389V21.1965C21.7028 21.0891 21.7432 20.9862 21.8151 20.9103C21.887 20.8344 21.9845 20.7918 22.0861 20.7918C22.1878 20.7918 22.2853 20.8344 22.3572 20.9103C22.4291 20.9862 22.4695 21.0891 22.4695 21.1965V26.9389C22.469 27.4854 22.2631 28.0092 21.8971 28.3957C21.5311 28.782 21.0348 28.9994 20.5172 29ZM27.407 16.9988C27.407 16.9457 27.3971 16.893 27.3778 16.844C27.3586 16.7948 27.3303 16.7502 27.2947 16.7126C27.2591 16.675 27.2169 16.6453 27.1703 16.6249C27.1238 16.6046 27.074 16.5941 27.0236 16.5942H16.4018C16.3001 16.5942 16.2026 16.6368 16.1307 16.7127C16.0589 16.7886 16.0184 16.8915 16.0184 16.9988C16.0184 17.1061 16.0589 17.2091 16.1307 17.285C16.2026 17.3608 16.3001 17.4035 16.4018 17.4035H27.0236C27.074 17.4035 27.1238 17.3931 27.1703 17.3727C27.2169 17.3524 27.2591 17.3226 27.2947 17.285C27.3303 17.2474 27.3586 17.2028 27.3778 17.1537C27.3971 17.1046 27.407 17.052 27.407 16.9988ZM27.2947 20.7092L29.4289 18.4563C29.7946 18.0695 30 17.5453 30 16.9988C30 16.4524 29.7946 15.9282 29.4289 15.5414L27.2947 13.2884C27.2591 13.2509 27.2168 13.2211 27.1703 13.2007C27.1238 13.1804 27.074 13.1699 27.0236 13.1699C26.9733 13.1699 26.9234 13.1804 26.8769 13.2007C26.8304 13.2211 26.7882 13.2509 26.7526 13.2884C26.717 13.326 26.6887 13.3706 26.6695 13.4197C26.6502 13.4688 26.6403 13.5214 26.6403 13.5745C26.6403 13.6277 26.6502 13.6803 26.6695 13.7294C26.6887 13.7785 26.717 13.8231 26.7526 13.8607L28.8868 16.1136C29.1089 16.3486 29.2336 16.667 29.2336 16.9988C29.2336 17.3307 29.1089 17.6491 28.8868 17.884L26.7526 20.137C26.7167 20.1745 26.6881 20.2191 26.6685 20.2683C26.649 20.3175 26.6388 20.3703 26.6386 20.4236C26.6385 20.477 26.6483 20.5299 26.6676 20.5792C26.6868 20.6285 26.7152 20.6733 26.7509 20.711C26.7867 20.7487 26.8291 20.7786 26.8758 20.799C26.9225 20.8193 26.9726 20.8297 27.0231 20.8295C27.0737 20.8293 27.1237 20.8186 27.1703 20.798C27.2169 20.7773 27.2592 20.7472 27.2947 20.7092Z" fill="#C2C2C2" stroke="rgb(89, 89, 89)" stroke-width="0.6"/>
</svg>