<svg xmlns="http://www.w3.org/2000/svg" width="23" height="28" viewBox="0 0 23 28" fill="none">
  <g clip-path="url(#clip0_170_128)">
    <path fill-rule="evenodd" clip-rule="evenodd" d="M22.5511 21.2369L20.5956 19.3846V12.2051C20.5956 7.79692 18.1095 4.10667 13.7741 3.13026V2.15385C13.7741 0.962051 12.7584 0 11.5003 0C10.2421 0 9.22643 0.962051 9.22643 2.15385V3.13026C4.87582 4.10667 2.40492 7.78256 2.40492 12.2051V19.3846L0.449427 21.2369C-0.505584 22.1415 0.161407 23.6923 1.51055 23.6923H21.4748C22.8391 23.6923 23.5061 22.1415 22.5511 21.2369ZM17.5638 20.8205H5.4367V12.2051C5.4367 8.6441 7.72569 5.74359 11.5003 5.74359C15.2748 5.74359 17.5638 8.6441 17.5638 12.2051V20.8205ZM11.5003 28C13.1677 28 14.532 27.021 14.532 25.1282H8.46848C8.46848 26.7077 9.81762 28 11.5003 28Z" fill="rgb(107, 107, 107)" stroke="white" stroke-width="0.5"/>
  </g>
  <defs>
    <clipPath id="clip0_170_128">
      <rect width="23" height="28" fill="white"/>
    </clipPath>
  </defs>
</svg>