<svg xmlns="http://www.w3.org/2000/svg" width="25" height="25" viewBox="0 0 25 25" fill="none">
  <path d="M12.5001 13.5094C11.132 13.5094 10.0191 14.6223 10.0191 15.9904C10.0191 16.6688 10.3011 17.3248 10.7934 17.7917V20.0317C10.7934 20.9727 11.559 21.7384 12.5001 21.7384C13.4412 21.7384 14.2068 20.9727 14.2068 20.0317V17.7917C14.6989 17.3251 14.9811 16.669 14.9811 15.9904C14.981 14.6223 13.868 13.5094 12.5001 13.5094ZM13.3779 16.9218C13.141 17.1449 13.0052 17.4569 13.0052 17.7777V20.0317C13.0052 20.3102 12.7786 20.5368 12.5001 20.5368C12.2215 20.5368 11.9949 20.3102 11.9949 20.0317V17.7777C11.9949 17.457 11.8591 17.145 11.6224 16.9219C11.3632 16.6776 11.2206 16.3468 11.2206 15.9904C11.2206 15.2849 11.7945 14.711 12.5 14.711C13.2054 14.711 13.7794 15.2849 13.7794 15.9904C13.7795 16.3468 13.6368 16.6776 13.3779 16.9218Z" fill="#A7B9CA"/>
  <path d="M19.7744 10.2479H17.9722V5.47227C17.9722 2.45483 15.5173 0 12.5 0C9.48267 0 7.02783 2.45483 7.02783 5.47227V10.2479H5.22563C4.23184 10.2479 3.42334 11.0564 3.42334 12.0501V23.1977C3.42334 24.1915 4.23184 25 5.22563 25H19.7744C20.7682 25 21.5767 24.1915 21.5767 23.1977V12.0502C21.5767 11.0564 20.7682 10.2479 19.7744 10.2479ZM8.2293 5.47227C8.2293 3.11743 10.1451 1.20156 12.5 1.20156C14.8548 1.20156 16.7707 3.11743 16.7707 5.47227V10.2479H8.2293V5.47227ZM20.3751 23.1977C20.3751 23.529 20.1056 23.7985 19.7744 23.7985H5.22563C4.89438 23.7985 4.62485 23.529 4.62485 23.1977V12.0502C4.62485 11.7189 4.89438 11.4494 5.22563 11.4494H19.7744C20.1056 11.4494 20.3751 11.7189 20.3751 12.0502V23.1977Z" fill="#A7B9CA"/>
</svg>