<svg xmlns="http://www.w3.org/2000/svg" width="25" height="25" viewBox="0 0 25 25" fill="none">
  <path d="M15.9073 12.3024L16.1752 12.0971C16.3875 11.9345 16.5888 11.7581 16.778 11.5691C16.778 11.5691 16.778 11.569 16.7781 11.569M15.9073 12.3024L8.53982 12.1262C7.61696 11.3698 6.9287 10.3638 6.55879 9.22602C6.16567 8.01688 6.15082 6.71658 6.51623 5.49877C6.88164 4.28097 7.60991 3.20365 8.60378 2.41068C9.59765 1.61772 10.8098 1.14687 12.0783 1.06102C13.3469 0.975163 14.6114 1.27839 15.7031 1.93021C16.7947 2.58203 17.6615 3.55141 18.1877 4.70887C18.7139 5.86633 18.8743 7.15678 18.6477 8.40786C18.4211 9.65895 17.8182 10.8111 16.9194 11.7105L16.7781 11.569M15.9073 12.3024L16.2161 12.4388C18.3449 13.3794 20.0372 15.0932 20.9508 17.2338C21.4309 18.3603 21.6772 19.5725 21.675 20.797V20.7974V21.8748C21.6744 22.3742 21.4758 22.853 21.1226 23.2061C20.7695 23.5593 20.2907 23.7579 19.7913 23.7585H5.20873C4.70932 23.7579 4.23052 23.5593 3.87738 23.2061L3.73785 23.3457L3.87738 23.2061C3.52427 22.853 3.32562 22.3743 3.325 21.8749L3.325 20.8335L3.325 20.8333C3.32387 19.6174 3.56874 18.4139 4.04487 17.2951L4.04489 17.2951C4.96224 15.1384 6.65979 13.4074 8.79817 12.4481L9.10528 12.3104L8.83744 12.1065C7.85811 11.3611 7.12953 10.3346 6.74899 9.16419C6.36845 7.99375 6.35408 6.73507 6.70779 5.55625C7.0615 4.37744 7.76646 3.3346 8.72852 2.56702C9.69057 1.79944 10.8639 1.34366 12.0919 1.26056C13.3198 1.17745 14.5438 1.47098 15.6006 2.10193C16.6573 2.73288 17.4963 3.67123 18.0056 4.79163C18.5149 5.91204 18.6703 7.16118 18.4509 8.37221C18.2316 9.58321 17.648 10.6984 16.7781 11.569M15.9073 12.3024L16.7781 11.569M19.9912 22.075H19.7915H5.2085H5.0085V21.875L5.0085 20.8337C5.0085 20.8336 5.0085 20.8336 5.0085 20.8335C5.0085 20.8335 5.0085 20.8335 5.0085 20.8335C5.00767 19.8432 5.20709 18.8628 5.59477 17.9515L5.59482 17.9514C6.35818 16.1597 7.77823 14.728 9.56367 13.95L9.56388 13.9499C10.4749 13.5542 11.4566 13.3474 12.4498 13.342M19.9912 22.075L19.993 20.7978M19.9912 22.075L19.9915 21.8753L19.993 20.7978M19.9912 22.075L19.993 20.7978M12.4498 13.342C13.9284 13.3301 15.3775 13.7558 16.6147 14.5655C17.852 15.3752 18.8222 16.5328 19.4032 17.8926L19.4032 17.8928C19.7944 18.8112 19.9951 19.7994 19.993 20.7977C19.993 20.7977 19.993 20.7978 19.993 20.7978M12.4498 13.342C12.4497 13.342 12.4497 13.342 12.4496 13.342L12.4512 13.542L12.4501 13.342C12.45 13.342 12.4499 13.342 12.4498 13.342ZM8.13301 7.29225C8.13297 8.30249 8.48318 9.2815 9.12399 10.0625C9.76486 10.8436 10.6567 11.3782 11.6476 11.5754C12.6385 11.7727 13.6672 11.6202 14.5582 11.144C15.4493 10.6678 16.1477 9.89738 16.5344 8.96399C16.9212 8.0306 16.9723 6.99199 16.6791 6.02514C16.3859 5.05829 15.7665 4.22301 14.9265 3.66163C14.0865 3.10025 13.0778 2.8475 12.0723 2.94645C11.067 3.04539 10.1271 3.48978 9.41267 4.20392C9.00582 4.60861 8.68324 5.08995 8.4636 5.62009C8.24398 6.15015 8.13162 6.71849 8.13301 7.29225ZM8.13301 7.29225C8.13301 7.29234 8.13301 7.29242 8.13301 7.29251L8.33301 7.29201L8.13301 7.29199C8.13301 7.29208 8.13301 7.29216 8.13301 7.29225Z" fill="white" stroke="#A7B9CA" stroke-width="1.2"/>
</svg>