<svg xmlns="http://www.w3.org/2000/svg" width="30" height="30" viewBox="0 0 30 30" fill="none">
  <path d="M24.8812 23.9062L20.2687 19.2938C25.0687 13.7531 21.0328 4.90312 13.6359 4.93125C11.3239 4.93373 9.1072 5.85296 7.47191 7.48737C5.83662 9.12178 4.9162 11.338 4.91248 13.65C4.88436 21.0516 13.7344 25.0875 19.275 20.2875L23.9062 24.8813C24.0415 24.9714 24.2038 25.0118 24.3655 24.9958C24.5272 24.9798 24.6784 24.9082 24.7933 24.7933C24.9082 24.6784 24.9797 24.5272 24.9958 24.3655C25.0118 24.2038 24.9713 24.0415 24.8812 23.9062ZM6.31873 13.6313C6.32121 11.6918 7.09308 9.83257 8.46491 8.46162C9.83675 7.09066 11.6965 6.31999 13.6359 6.31875C23.3344 6.72187 23.3344 20.5453 13.6359 20.9484C11.6957 20.9472 9.83523 20.1759 8.46326 18.8039C7.09129 17.4319 6.31997 15.5715 6.31873 13.6313Z" fill="#929292"/>
</svg>