<svg xmlns="http://www.w3.org/2000/svg" width="31" height="33" viewBox="0 0 31 33" fill="none">
  <path d="M15.5 20.625C17.6401 20.625 19.375 18.7782 19.375 16.5C19.375 14.2218 17.6401 12.375 15.5 12.375C13.3599 12.375 11.625 14.2218 11.625 16.5C11.625 18.7782 13.3599 20.625 15.5 20.625Z" stroke="#C2C2C2" stroke-width="2" stroke-miterlimit="10" stroke-linecap="round" stroke-linejoin="round"/>
  <path d="M26.8906 10.6899L25.9218 8.90381C25.3871 7.91691 24.2023 7.57969 23.2752 8.14894L22.7656 8.46244C20.8281 9.6525 18.4062 8.16441 18.4062 5.78325V5.15625C18.4062 4.01672 17.5392 3.09375 16.4687 3.09375H14.5312C13.4608 3.09375 12.5937 4.01672 12.5937 5.15625V5.78325C12.5937 8.16441 10.1719 9.65353 8.23436 8.46244L7.7248 8.14894C6.79771 7.57969 5.61293 7.91691 5.07818 8.90381L4.10943 10.6899C3.57468 11.6768 3.89146 12.9381 4.81855 13.5073L5.32811 13.8208C7.26561 15.0119 7.26561 17.9881 5.32811 19.1792L4.81855 19.4927C3.89146 20.0619 3.57468 21.3232 4.10943 22.3101L5.07818 24.0962C5.61293 25.0831 6.79771 25.4203 7.7248 24.8511L8.23436 24.5376C10.1719 23.3465 12.5937 24.8356 12.5937 27.2168V27.8438C12.5937 28.9833 13.4608 29.9062 14.5312 29.9062H16.4687C17.5392 29.9062 18.4062 28.9833 18.4062 27.8438V27.2168C18.4062 24.8356 20.8281 23.3465 22.7656 24.5376L23.2752 24.8511C24.2023 25.4203 25.3871 25.0831 25.9218 24.0962L26.8906 22.3101C27.4253 21.3232 27.1085 20.0619 26.1814 19.4927L25.6719 19.1792C23.7344 17.9881 23.7344 15.0119 25.6719 13.8208L26.1814 13.5073C27.1085 12.9381 27.4263 11.6768 26.8906 10.6899Z" stroke="#C2C2C2" stroke-width="2" stroke-miterlimit="10" stroke-linecap="round" stroke-linejoin="round"/>
</svg>