<svg width="742" height="502" viewBox="0 0 742 502" fill="none" xmlns="http://www.w3.org/2000/svg">
<path d="M478.924 275.178C479.865 262.017 479.235 248.788 477.046 235.782C474.969 224.106 471.368 212.766 466.34 202.064C441.09 148.254 381.201 113.763 323.042 125.725C290.923 132.319 251.624 155.251 241.444 189.086C234.247 213.001 237.327 239.192 225.855 261.914C214.078 285.325 202.161 306.056 205.266 333.642C208.56 363.193 228.218 389.006 252.661 405.218C283.009 425.378 323.026 436.5 359.155 433.913C430.137 428.839 474.329 346.309 478.924 275.178Z" fill="#7AA5D2"/>
<path opacity="0.8" d="M478.924 275.178C479.865 262.017 479.235 248.788 477.046 235.782C474.969 224.106 471.368 212.766 466.34 202.064C441.09 148.254 381.201 113.763 323.042 125.725C290.923 132.319 251.624 155.251 241.444 189.086C234.247 213.001 237.327 239.192 225.855 261.914C214.078 285.325 202.161 306.056 205.266 333.642C208.56 363.193 228.218 389.006 252.661 405.218C283.009 425.378 323.026 436.5 359.155 433.913C430.137 428.839 474.329 346.309 478.924 275.178Z" fill="white"/>
<path opacity="0.2" d="M477.598 241.351H446.435C444.506 241.351 442.943 242.946 442.943 244.913V261.461C442.943 263.428 444.506 265.022 446.435 265.022H477.598C479.527 265.022 481.09 263.428 481.09 261.461V244.913C481.09 242.946 479.527 241.351 477.598 241.351Z" fill="#263238"/>
<path d="M443.594 243.955L460.18 252.641C460.701 252.908 461.277 253.047 461.86 253.047C462.443 253.047 463.019 252.908 463.54 252.641L480.555 243.888" stroke="white" stroke-width="0.75" stroke-linecap="round" stroke-linejoin="round"/>
<path opacity="0.2" d="M238.793 239.688C238.668 239.523 238.508 239.39 238.326 239.298C238.143 239.207 237.942 239.159 237.738 239.159H203.693L202.359 235.135C202.266 234.877 202.098 234.654 201.877 234.496C201.656 234.338 201.393 234.253 201.123 234.253H192.476C192.143 234.28 191.833 234.433 191.607 234.683C191.38 234.933 191.255 235.261 191.255 235.601C191.255 235.941 191.38 236.269 191.607 236.519C191.833 236.769 192.143 236.923 192.476 236.949H200.143L208.453 262.393C208.54 262.662 208.707 262.896 208.932 263.062C209.157 263.228 209.427 263.317 209.705 263.317H210.191C209.746 264.018 209.496 264.829 209.465 265.664C209.434 266.498 209.625 267.326 210.016 268.059C210.408 268.792 210.986 269.405 211.69 269.831C212.394 270.258 213.197 270.483 214.016 270.483C214.835 270.483 215.638 270.258 216.342 269.831C217.046 269.405 217.624 268.792 218.016 268.059C218.407 267.326 218.598 266.498 218.567 265.664C218.536 264.829 218.286 264.018 217.841 263.317H224.191C223.747 264.018 223.496 264.829 223.465 265.664C223.435 266.498 223.625 267.326 224.017 268.059C224.408 268.792 224.986 269.405 225.69 269.831C226.394 270.258 227.198 270.483 228.016 270.483C228.835 270.483 229.639 270.258 230.343 269.831C231.047 269.405 231.625 268.792 232.016 268.059C232.408 267.326 232.598 266.498 232.567 265.664C232.537 264.829 232.286 264.018 231.842 263.317H232.863C233.196 263.29 233.506 263.137 233.732 262.887C233.959 262.637 234.085 262.309 234.085 261.969C234.085 261.629 233.959 261.301 233.732 261.051C233.506 260.801 233.196 260.647 232.863 260.621H210.627L209.178 256.177H233.884C234.175 256.176 234.458 256.078 234.688 255.897C234.919 255.717 235.085 255.464 235.161 255.177L238.924 240.897C238.997 240.699 239.023 240.487 239 240.277C238.978 240.066 238.906 239.865 238.793 239.688ZM214.086 267.719C213.708 267.719 213.339 267.604 213.025 267.39C212.71 267.176 212.465 266.872 212.321 266.516C212.176 266.159 212.138 265.768 212.212 265.39C212.286 265.012 212.468 264.664 212.735 264.392C213.002 264.119 213.343 263.934 213.713 263.858C214.084 263.783 214.468 263.822 214.817 263.969C215.166 264.117 215.465 264.367 215.675 264.687C215.885 265.008 215.997 265.384 215.997 265.77C215.997 266.029 215.946 266.286 215.847 266.525C215.749 266.765 215.604 266.981 215.423 267.163C215.241 267.344 215.025 267.487 214.789 267.582C214.552 267.678 214.299 267.724 214.045 267.719H214.086ZM228.086 267.719C227.709 267.719 227.339 267.604 227.025 267.39C226.711 267.176 226.466 266.872 226.321 266.516C226.177 266.159 226.139 265.768 226.213 265.39C226.286 265.012 226.468 264.664 226.735 264.392C227.003 264.119 227.343 263.934 227.714 263.858C228.084 263.783 228.468 263.822 228.818 263.969C229.167 264.117 229.465 264.367 229.675 264.687C229.885 265.008 229.997 265.384 229.997 265.77C229.997 266.029 229.946 266.286 229.848 266.525C229.749 266.765 229.605 266.981 229.423 267.163C229.241 267.344 229.026 267.487 228.789 267.582C228.552 267.678 228.3 267.724 228.045 267.719H228.086ZM231.611 253.439H226.719V241.855H231.611V253.439ZM219.184 241.855H224.076V253.439H219.184V241.855ZM216.54 253.439H211.599V241.855H216.54V253.439ZM204.574 241.855H208.947V253.439H208.354L204.574 241.855ZM234.222 248.676V241.855H236.025L234.222 248.676Z" fill="#263238"/>
<path opacity="0.2" d="M447.777 175.453L450.833 174.033L450.182 170.295L446.814 170.027C446.387 168.872 445.82 167.778 445.125 166.767L446.863 163.777L444.236 161.089L441.279 162.887C439.579 161.707 437.654 160.906 435.63 160.535L434.806 157.091H431.084L430.26 160.551C429.104 160.776 427.978 161.143 426.908 161.643L424.248 159.291L421.201 161.467L422.453 164.827C421.637 165.683 420.922 166.633 420.32 167.658L416.812 167.288L415.535 170.858L418.442 172.866C418.3 173.698 418.229 174.541 418.228 175.386C418.228 175.747 418.228 176.1 418.269 176.453L415.222 178.191L416.186 181.862H419.636C420.148 182.961 420.786 183.993 421.539 184.937L420.015 188.053L422.865 190.489L425.632 188.473C426.67 189.084 427.776 189.566 428.926 189.909L429.478 193.269L433.192 193.605L434.304 190.38C435.523 190.272 436.723 190.01 437.878 189.599L440.217 192.018L443.445 190.119L442.556 186.852C443.488 186.041 444.318 185.116 445.027 184.097L448.321 184.71L449.918 181.333L447.349 179.166C447.64 177.951 447.784 176.704 447.777 175.453ZM442.268 175.386C442.268 177.261 441.722 179.095 440.701 180.655C439.679 182.214 438.227 183.43 436.528 184.147C434.829 184.865 432.959 185.053 431.156 184.687C429.352 184.321 427.696 183.418 426.395 182.092C425.095 180.765 424.209 179.076 423.851 177.236C423.492 175.396 423.676 173.489 424.38 171.757C425.083 170.024 426.275 168.543 427.804 167.5C429.333 166.458 431.131 165.902 432.97 165.902C434.199 165.897 435.418 166.14 436.555 166.618C437.691 167.097 438.724 167.801 439.592 168.689C440.46 169.578 441.146 170.633 441.611 171.794C442.076 172.955 442.31 174.199 442.301 175.453L442.268 175.386Z" fill="#263238"/>
<path opacity="0.2" d="M436.173 341.958C435.99 342.307 435.945 342.715 436.05 343.097C436.154 343.479 436.399 343.805 436.733 344.007C437.138 344.257 437.623 344.337 438.084 344.228C438.545 344.12 438.947 343.833 439.204 343.428L443.544 336.599L443.627 336.447L449.21 335.843L448.642 336.977C448.555 337.143 448.529 337.335 448.57 337.519C448.611 337.702 448.715 337.865 448.864 337.976C448.949 338.036 449.044 338.078 449.145 338.098C449.246 338.118 449.35 338.116 449.451 338.092C449.551 338.068 449.645 338.023 449.727 337.96C449.809 337.896 449.877 337.816 449.927 337.724L451.055 335.649L455.255 335.196L454.432 336.775C454.346 336.945 454.326 337.141 454.377 337.325C454.427 337.509 454.544 337.666 454.703 337.766C454.723 337.856 454.77 337.937 454.836 338C454.903 338.062 454.986 338.102 455.075 338.115C455.165 338.128 455.256 338.112 455.336 338.071C455.417 338.03 455.483 337.964 455.527 337.884L457.1 334.994L459.883 334.692C460.395 334.639 460.889 334.471 461.329 334.199C461.77 333.927 462.145 333.559 462.428 333.121L462.889 332.415L454.366 331.508C454.366 331.508 448.84 330.996 447.975 328.224L452.233 320.109L452.274 320L458.179 319.345L459.472 317.598L453.814 316.178L454.201 315.229C454.209 315.209 454.211 315.187 454.205 315.166C454.199 315.146 454.186 315.128 454.168 315.116C454.15 315.104 454.129 315.098 454.108 315.101C454.087 315.103 454.067 315.113 454.053 315.128L453.229 315.968L449.309 311.357L448.189 313.482L450.553 318.698L450.404 318.849L445.801 325.813C444.936 326.552 443.33 327.493 441.996 325.947C439.97 323.705 434.642 314.96 434.642 314.96L434.115 316.296C433.777 317.17 433.777 318.143 434.115 319.017L435.053 321.537L433.777 323.965C433.69 324.131 433.664 324.323 433.705 324.507C433.746 324.691 433.85 324.853 433.999 324.965C434.085 325.023 434.182 325.063 434.284 325.082C434.385 325.101 434.49 325.098 434.59 325.073C434.691 325.049 434.785 325.003 434.868 324.94C434.95 324.876 435.019 324.796 435.07 324.704L435.729 323.495L437.112 327.182L435.893 329.601C435.805 329.769 435.779 329.964 435.822 330.15C435.864 330.336 435.972 330.499 436.124 330.609C436.209 330.668 436.305 330.708 436.407 330.726C436.508 330.745 436.611 330.742 436.711 330.717C436.811 330.693 436.905 330.648 436.987 330.584C437.069 330.521 437.137 330.441 437.186 330.349L437.895 329.173L440.003 334.776L436.173 341.958Z" fill="#263238"/>
<path opacity="0.2" d="M282.301 154.226H243.248V178.183H282.301V154.226Z" fill="#263238"/>
<path d="M262.181 172.891C266.016 172.891 269.124 169.721 269.124 165.81C269.124 161.899 266.016 158.729 262.181 158.729C258.347 158.729 255.239 161.899 255.239 165.81C255.239 169.721 258.347 172.891 262.181 172.891Z" fill="white"/>
<path opacity="0.2" d="M267.222 165.81L259.587 161.316V170.304L267.222 165.81Z" fill="#263238"/>
<path opacity="0.2" d="M234.988 314.591V333.373C234.227 332.963 233.378 332.752 232.517 332.76C230.129 332.76 228.202 334.28 228.202 336.12C228.202 337.959 230.129 339.522 232.517 339.522C236.536 339.522 236.833 336.716 236.833 336.716V320.219L248.296 318.539V331.139C247.533 330.735 246.685 330.527 245.826 330.534C243.437 330.534 241.51 332.054 241.51 333.936C241.51 335.817 243.437 337.296 245.826 337.296C247.942 337.296 249.705 336.078 250.059 334.49L250.125 318.253V312.373L234.988 314.591Z" fill="#263238"/>
<path opacity="0.2" d="M359.698 143.533V141.357C359.698 140.999 359.559 140.655 359.31 140.401C359.061 140.147 358.724 140.005 358.372 140.005H356.124C355.772 140.005 355.435 140.147 355.187 140.401C354.938 140.655 354.798 140.999 354.798 141.357V149.228H332.562V141.357C332.562 140.999 332.423 140.655 332.174 140.401C331.925 140.147 331.588 140.005 331.236 140.005H328.84C328.492 140.012 328.162 140.157 327.918 140.41C327.675 140.663 327.539 141.003 327.539 141.357V143.533H324.006C323.606 143.533 323.223 143.695 322.94 143.983C322.657 144.272 322.498 144.663 322.498 145.07V155.293C322.498 155.701 322.657 156.093 322.939 156.383C323.222 156.673 323.605 156.836 324.006 156.839H327.539V158.989C327.541 159.34 327.677 159.677 327.918 159.928C328.159 160.179 328.487 160.324 328.832 160.333H331.228C331.58 160.333 331.917 160.191 332.166 159.937C332.414 159.683 332.554 159.339 332.554 158.981V152.773H354.79V158.939C354.784 159.12 354.815 159.302 354.88 159.471C354.944 159.641 355.042 159.795 355.166 159.925C355.291 160.055 355.44 160.159 355.604 160.229C355.769 160.299 355.946 160.334 356.124 160.333H358.372C358.724 160.333 359.061 160.191 359.31 159.937C359.559 159.683 359.698 159.339 359.698 158.981V156.805H363.091C363.486 156.803 363.865 156.644 364.146 156.361C364.428 156.079 364.59 155.696 364.598 155.293V145.053C364.594 144.649 364.433 144.262 364.151 143.977C363.869 143.693 363.488 143.533 363.091 143.533H359.698Z" fill="#263238"/>
<path opacity="0.2" d="M343.672 355.625C394.213 355.625 435.185 313.834 435.185 262.284C435.185 210.733 394.213 168.943 343.672 168.943C293.131 168.943 252.159 210.733 252.159 262.284C252.159 313.834 293.131 355.625 343.672 355.625Z" fill="#263238"/>
<path d="M343.672 348.3C390.247 348.3 428.004 309.789 428.004 262.284C428.004 214.778 390.247 176.268 343.672 176.268C297.097 176.268 259.34 214.778 259.34 262.284C259.34 309.789 297.097 348.3 343.672 348.3Z" fill="#7AA5D2" stroke="#263238" stroke-miterlimit="10"/>
<g opacity="0.2">
<path d="M343.672 265.098C343.304 265.1 342.94 265.027 342.6 264.883C342.26 264.738 341.953 264.526 341.695 264.258L288.65 208.692C288.166 208.152 287.907 207.441 287.927 206.71C287.948 205.979 288.247 205.285 288.761 204.774C289.275 204.264 289.964 203.978 290.681 203.977C291.399 203.976 292.088 204.26 292.604 204.769L345.657 260.293C346.036 260.689 346.292 261.191 346.393 261.735C346.494 262.279 346.436 262.842 346.225 263.352C346.013 263.863 345.66 264.298 345.207 264.604C344.754 264.91 344.223 265.073 343.68 265.073L343.672 265.098Z" fill="#263238"/>
</g>
<path opacity="0.2" d="M319.88 281.335C319.286 281.338 318.707 281.145 318.23 280.786C317.752 280.427 317.4 279.92 317.227 279.341C317.054 278.762 317.069 278.141 317.27 277.571C317.47 277.001 317.845 276.513 318.34 276.177L342.14 259.94C342.749 259.547 343.483 259.413 344.188 259.565C344.892 259.717 345.51 260.144 345.91 260.755C346.31 261.366 346.46 262.112 346.328 262.834C346.196 263.556 345.793 264.196 345.204 264.619L321.411 280.856C320.958 281.166 320.425 281.333 319.88 281.335Z" fill="#263238"/>
<path d="M347.09 262.284C347.091 261.594 346.892 260.919 346.518 260.345C346.143 259.77 345.61 259.322 344.986 259.057C344.361 258.792 343.674 258.722 343.01 258.855C342.347 258.989 341.737 259.32 341.258 259.807C340.779 260.295 340.453 260.916 340.321 261.592C340.188 262.269 340.255 262.97 340.514 263.608C340.772 264.245 341.21 264.79 341.772 265.173C342.335 265.557 342.996 265.761 343.672 265.761C344.577 265.761 345.445 265.395 346.086 264.743C346.727 264.091 347.088 263.207 347.09 262.284Z" fill="#263238" stroke="#263238" stroke-miterlimit="10" stroke-linecap="round"/>
<path d="M343.738 183.962V195.588" stroke="#263238" stroke-width="2" stroke-miterlimit="10" stroke-linecap="round"/>
<path d="M343.738 328.073V339.698" stroke="#263238" stroke-width="2" stroke-miterlimit="10" stroke-linecap="round"/>
<path d="M420.081 261.83H408.675" stroke="#263238" stroke-width="2" stroke-miterlimit="10" stroke-linecap="round"/>
<path d="M278.793 261.83H267.395" stroke="#263238" stroke-width="2" stroke-miterlimit="10" stroke-linecap="round"/>
<path d="M383.771 195.529L377.792 205.433" stroke="#263238" stroke-width="2" stroke-miterlimit="10" stroke-linecap="round"/>
<path d="M309.676 318.228L303.697 328.131" stroke="#263238" stroke-width="2" stroke-miterlimit="10" stroke-linecap="round"/>
<path d="M410.899 224.811L400.868 230.339" stroke="#263238" stroke-width="2" stroke-miterlimit="10" stroke-linecap="round"/>
<path d="M286.6 293.322L276.569 298.849" stroke="#263238" stroke-width="2" stroke-miterlimit="10" stroke-linecap="round"/>
<path d="M408.741 302.671L399.031 296.564" stroke="#263238" stroke-width="2" stroke-miterlimit="10" stroke-linecap="round"/>
<path d="M288.445 227.096L278.735 220.998" stroke="#263238" stroke-width="2" stroke-miterlimit="10" stroke-linecap="round"/>
<path d="M380.032 330.341L374.613 320.101" stroke="#263238" stroke-width="2" stroke-miterlimit="10" stroke-linecap="round"/>
<path d="M312.863 203.559L307.444 193.328" stroke="#263238" stroke-width="2" stroke-miterlimit="10" stroke-linecap="round"/>
<path d="M341.943 460.154C378.198 460.154 407.588 456.611 407.588 452.241C407.588 447.871 378.198 444.329 341.943 444.329C305.688 444.329 276.297 447.871 276.297 452.241C276.297 456.611 305.688 460.154 341.943 460.154Z" fill="#7AA5D2"/>
<path opacity="0.5" d="M341.943 460.154C378.198 460.154 407.588 456.611 407.588 452.241C407.588 447.871 378.198 444.329 341.943 444.329C305.688 444.329 276.297 447.871 276.297 452.241C276.297 456.611 305.688 460.154 341.943 460.154Z" fill="white"/>
<path d="M359.558 334.507C359.468 332.642 359.558 329.769 359.632 328.115C359.851 326.777 359.962 325.422 359.962 324.066C359.962 306.056 353.151 304.544 344.734 304.544C336.318 304.544 329.507 307.434 329.507 324.066C329.507 324.503 329.507 324.906 329.548 325.368C329.622 326.09 330.314 332.995 329.68 335.599C329.005 338.346 323.61 338.9 320.514 345.494C317.417 352.088 324.154 361.715 346.118 362.949C368.082 364.184 370.363 349.215 370.363 344.133C370.363 339.051 359.698 337.254 359.558 334.507Z" fill="#263238"/>
<path d="M328.972 325.434L329.515 325.376V325.301L328.972 325.434Z" fill="#263238"/>
<path d="M332.068 350.173C332.068 350.173 323.182 350.669 320.028 352.475C316.874 354.281 316.281 364.94 316.281 364.94L306.826 385.638C306.826 385.638 281.403 367.553 279.237 365.747C277.071 363.941 276.478 362.529 274.296 361.118C272.114 359.707 271.339 359.715 268.581 359.715C265.822 359.715 265.426 360.119 265.624 360.917C265.822 361.715 266.81 361.925 267.592 361.925C268.457 361.995 269.316 362.13 270.162 362.328L262.272 365.545C260.304 366.343 260.699 363.126 258.928 363.126C257.158 363.126 257.347 367.754 260.304 369.963C263.26 372.173 265.245 371.568 267.592 371.366C269.939 371.165 275.482 370.367 275.482 370.367C275.482 370.367 290.652 384.033 296.17 389.057C301.687 394.08 309.173 398.901 311.932 396.894C314.691 394.886 325.109 375.188 325.109 375.188L331.805 357.103C331.805 357.103 333.674 353.306 332.068 350.173Z" fill="white"/>
<mask id="mask0_332_182" style="mask-type:luminance" maskUnits="userSpaceOnUse" x="257" y="350" width="76" height="48">
<path d="M332.068 350.173C332.068 350.173 323.182 350.669 320.028 352.475C316.874 354.281 316.281 364.94 316.281 364.94L306.826 385.638C306.826 385.638 281.403 367.553 279.237 365.747C277.071 363.941 276.478 362.529 274.296 361.118C272.114 359.707 271.339 359.715 268.581 359.715C265.822 359.715 265.426 360.119 265.624 360.917C265.822 361.715 266.81 361.925 267.592 361.925C268.457 361.995 269.316 362.13 270.162 362.328L262.272 365.545C260.304 366.343 260.699 363.126 258.928 363.126C257.158 363.126 257.347 367.754 260.304 369.963C263.26 372.173 265.245 371.568 267.592 371.366C269.939 371.165 275.482 370.367 275.482 370.367C275.482 370.367 290.652 384.033 296.17 389.057C301.687 394.08 309.173 398.901 311.932 396.894C314.691 394.886 325.109 375.188 325.109 375.188L331.805 357.103C331.805 357.103 333.674 353.306 332.068 350.173Z" fill="white"/>
</mask>
<g mask="url(#mask0_332_182)">
<path opacity="0.1" d="M332.068 350.173C332.068 350.173 323.182 350.669 320.028 352.475C316.874 354.281 316.281 364.94 316.281 364.94L306.826 385.638C306.826 385.638 281.403 367.553 279.237 365.747C277.071 363.941 276.478 362.529 274.296 361.118C272.114 359.707 271.339 359.715 268.581 359.715C265.822 359.715 265.426 360.119 265.624 360.917C265.822 361.715 266.81 361.925 267.592 361.925C268.457 361.995 269.316 362.13 270.162 362.328L262.272 365.545C260.304 366.343 260.699 363.126 258.928 363.126C257.158 363.126 257.347 367.754 260.304 369.963C263.26 372.173 265.245 371.568 267.592 371.366C269.939 371.165 275.482 370.367 275.482 370.367C275.482 370.367 290.652 384.033 296.17 389.057C301.687 394.08 309.173 398.901 311.932 396.894C314.691 394.886 325.109 375.188 325.109 375.188L331.805 357.103C331.805 357.103 333.674 353.306 332.068 350.173Z" fill="black"/>
</g>
<path d="M332.068 350.173C332.068 350.173 323.182 350.669 320.028 352.475C316.874 354.281 316.281 364.94 316.281 364.94L306.826 385.638C306.826 385.638 281.403 367.553 279.237 365.747C277.071 363.941 276.478 362.529 274.296 361.118C272.114 359.707 271.339 359.715 268.581 359.715C265.822 359.715 265.426 360.119 265.624 360.917C265.822 361.715 266.81 361.925 267.592 361.925C268.457 361.995 269.316 362.13 270.162 362.328L262.272 365.545C260.304 366.343 260.699 363.126 258.928 363.126C257.158 363.126 257.347 367.754 260.304 369.963C263.26 372.173 265.245 371.568 267.592 371.366C269.939 371.165 275.482 370.367 275.482 370.367C275.482 370.367 290.652 384.033 296.17 389.057C301.687 394.08 309.173 398.901 311.932 396.894C314.691 394.886 325.109 375.188 325.109 375.188L331.805 357.103C331.805 357.103 333.674 353.306 332.068 350.173Z" stroke="#263238" stroke-miterlimit="10" stroke-linecap="round"/>
<path d="M260.872 370.409C260.872 370.409 257.034 367.233 259.101 364.125C259.612 363.353 260.749 364.52 261.078 366.645C261.407 368.771 262.445 369.594 262.98 369.745" fill="white"/>
<mask id="mask1_332_182" style="mask-type:luminance" maskUnits="userSpaceOnUse" x="258" y="363" width="5" height="8">
<path d="M260.872 370.409C260.872 370.409 257.034 367.233 259.101 364.125C259.612 363.353 260.749 364.52 261.078 366.645C261.407 368.771 262.445 369.594 262.98 369.745" fill="white"/>
</mask>
<g mask="url(#mask1_332_182)">
<path opacity="0.1" d="M260.872 370.409C260.872 370.409 257.034 367.233 259.101 364.125C259.612 363.353 260.749 364.52 261.078 366.645C261.407 368.771 262.445 369.594 262.98 369.745" fill="black"/>
</g>
<path d="M260.872 370.409C260.872 370.409 257.034 367.233 259.101 364.125C259.612 363.353 260.749 364.52 261.078 366.645C261.407 368.771 262.445 369.594 262.98 369.745" stroke="#263238" stroke-miterlimit="10" stroke-linecap="round"/>
<path d="M263.738 369.711C262.824 369.711 262.873 367.191 261.152 365.99C259.785 365.007 259.958 366.939 260.279 368.51C260.405 369.154 260.718 369.745 261.178 370.205C261.638 370.665 262.223 370.973 262.857 371.089C263.447 371.24 264.06 371.265 264.66 371.165" fill="white"/>
<mask id="mask2_332_182" style="mask-type:luminance" maskUnits="userSpaceOnUse" x="260" y="365" width="5" height="7">
<path d="M263.738 369.711C262.824 369.711 262.873 367.191 261.152 365.99C259.785 365.007 259.958 366.939 260.279 368.51C260.405 369.154 260.718 369.745 261.178 370.205C261.638 370.665 262.223 370.973 262.857 371.089C263.447 371.24 264.06 371.265 264.66 371.165" fill="white"/>
</mask>
<g mask="url(#mask2_332_182)">
<path opacity="0.1" d="M263.738 369.711C262.824 369.711 262.873 367.191 261.152 365.99C259.785 365.007 259.958 366.939 260.279 368.51C260.405 369.154 260.718 369.745 261.178 370.205C261.638 370.665 262.223 370.973 262.857 371.089C263.447 371.24 264.06 371.265 264.66 371.165" fill="black"/>
</g>
<path d="M263.738 369.711C262.824 369.711 262.873 367.191 261.152 365.99C259.785 365.007 259.958 366.939 260.279 368.51C260.405 369.154 260.718 369.745 261.178 370.205C261.638 370.665 262.223 370.973 262.857 371.089C263.447 371.24 264.06 371.265 264.66 371.165" stroke="#263238" stroke-miterlimit="10" stroke-linecap="round"/>
<path d="M275.301 365.604C275.301 365.604 274.008 364.671 271.496 365.528C268.984 366.385 266.019 370.106 265.336 369.795C264.696 369.422 264.211 368.825 263.969 368.115C263.582 367.343 262.832 366.225 262.322 367.124C261.185 369.09 264.282 371.324 264.282 371.324C264.282 371.324 264.71 371.694 267.106 371.4C269.503 371.106 274.914 370.333 274.914 370.333" fill="white"/>
<mask id="mask3_332_182" style="mask-type:luminance" maskUnits="userSpaceOnUse" x="262" y="365" width="14" height="7">
<path d="M275.301 365.604C275.301 365.604 274.008 364.671 271.496 365.528C268.984 366.385 266.019 370.106 265.336 369.795C264.696 369.422 264.211 368.825 263.969 368.115C263.582 367.343 262.832 366.225 262.322 367.124C261.185 369.09 264.282 371.324 264.282 371.324C264.282 371.324 264.71 371.694 267.106 371.4C269.503 371.106 274.914 370.333 274.914 370.333" fill="white"/>
</mask>
<g mask="url(#mask3_332_182)">
<path opacity="0.1" d="M275.301 365.604C275.301 365.604 274.008 364.671 271.496 365.528C268.984 366.385 266.019 370.106 265.336 369.795C264.696 369.422 264.211 368.825 263.969 368.115C263.582 367.343 262.832 366.225 262.322 367.124C261.185 369.09 264.282 371.324 264.282 371.324C264.282 371.324 264.71 371.694 267.106 371.4C269.503 371.106 274.914 370.333 274.914 370.333" fill="black"/>
</g>
<path d="M275.301 365.604C275.301 365.604 274.008 364.671 271.496 365.528C268.984 366.385 266.019 370.106 265.336 369.795C264.696 369.422 264.211 368.825 263.969 368.115C263.582 367.343 262.832 366.225 262.322 367.124C261.185 369.09 264.282 371.324 264.282 371.324C264.282 371.324 264.71 371.694 267.106 371.4C269.503 371.106 274.914 370.333 274.914 370.333" stroke="#263238" stroke-miterlimit="10" stroke-linecap="round"/>
<path d="M325.257 370.879L322.383 362.487" stroke="#263238" stroke-miterlimit="10" stroke-linecap="round"/>
<path d="M355.136 349.988C355.136 349.988 364.5 350.669 367.654 352.508C370.808 354.348 371.401 364.974 371.401 364.974L380.855 385.671C380.855 385.671 406.278 367.586 408.444 365.78C410.61 363.974 411.203 362.563 413.386 361.152C415.568 359.741 416.342 359.749 419.101 359.749C421.86 359.749 422.255 360.152 422.058 360.95C421.86 361.748 420.872 361.958 420.081 361.958C419.219 362.029 418.363 362.164 417.52 362.361L425.401 365.579C427.378 366.377 426.983 363.159 428.753 363.159C430.524 363.159 430.334 367.788 427.378 369.997C424.421 372.206 422.437 371.601 420.081 371.4C417.726 371.198 412.2 370.4 412.2 370.4C412.2 370.4 397.03 384.067 391.512 389.09C385.994 394.113 378.508 398.935 375.749 396.927C372.99 394.92 362.573 375.222 362.573 375.222L355.877 357.137C355.877 357.137 353.538 353.121 355.136 349.988Z" fill="white"/>
<mask id="mask4_332_182" style="mask-type:luminance" maskUnits="userSpaceOnUse" x="354" y="349" width="76" height="49">
<path d="M355.136 349.988C355.136 349.988 364.5 350.669 367.654 352.508C370.808 354.348 371.401 364.974 371.401 364.974L380.855 385.671C380.855 385.671 406.278 367.586 408.444 365.78C410.61 363.974 411.203 362.563 413.386 361.152C415.568 359.741 416.342 359.749 419.101 359.749C421.86 359.749 422.255 360.152 422.058 360.95C421.86 361.748 420.872 361.958 420.081 361.958C419.219 362.029 418.363 362.164 417.52 362.361L425.401 365.579C427.378 366.377 426.983 363.159 428.753 363.159C430.524 363.159 430.334 367.788 427.378 369.997C424.421 372.206 422.437 371.601 420.081 371.4C417.726 371.198 412.2 370.4 412.2 370.4C412.2 370.4 397.03 384.067 391.512 389.09C385.994 394.113 378.508 398.935 375.749 396.927C372.99 394.92 362.573 375.222 362.573 375.222L355.877 357.137C355.877 357.137 353.538 353.121 355.136 349.988Z" fill="white"/>
</mask>
<g mask="url(#mask4_332_182)">
<path opacity="0.1" d="M355.136 349.988C355.136 349.988 364.5 350.669 367.654 352.508C370.808 354.348 371.401 364.974 371.401 364.974L380.855 385.671C380.855 385.671 406.278 367.586 408.444 365.78C410.61 363.974 411.203 362.563 413.386 361.152C415.568 359.741 416.342 359.749 419.101 359.749C421.86 359.749 422.255 360.152 422.058 360.95C421.86 361.748 420.872 361.958 420.081 361.958C419.219 362.029 418.363 362.164 417.52 362.361L425.401 365.579C427.378 366.377 426.983 363.159 428.753 363.159C430.524 363.159 430.334 367.788 427.378 369.997C424.421 372.206 422.437 371.601 420.081 371.4C417.726 371.198 412.2 370.4 412.2 370.4C412.2 370.4 397.03 384.067 391.512 389.09C385.994 394.113 378.508 398.935 375.749 396.927C372.99 394.92 362.573 375.222 362.573 375.222L355.877 357.137C355.877 357.137 353.538 353.121 355.136 349.988Z" fill="black"/>
</g>
<path d="M355.136 349.988C355.136 349.988 364.5 350.669 367.654 352.508C370.808 354.348 371.401 364.974 371.401 364.974L380.855 385.671C380.855 385.671 406.278 367.586 408.444 365.78C410.61 363.974 411.203 362.563 413.386 361.152C415.568 359.741 416.342 359.749 419.101 359.749C421.86 359.749 422.255 360.152 422.058 360.95C421.86 361.748 420.872 361.958 420.081 361.958C419.219 362.029 418.363 362.164 417.52 362.361L425.401 365.579C427.378 366.377 426.983 363.159 428.753 363.159C430.524 363.159 430.334 367.788 427.378 369.997C424.421 372.206 422.437 371.601 420.081 371.4C417.726 371.198 412.2 370.4 412.2 370.4C412.2 370.4 397.03 384.067 391.512 389.09C385.994 394.113 378.508 398.935 375.749 396.927C372.99 394.92 362.573 375.222 362.573 375.222L355.877 357.137C355.877 357.137 353.538 353.121 355.136 349.988Z" stroke="#263238" stroke-miterlimit="10" stroke-linecap="round"/>
<path d="M362.573 369.123L364.862 362.294" stroke="#263238" stroke-miterlimit="10" stroke-linecap="round"/>
<path d="M427.757 369.266C427.757 369.266 429.404 364.52 428.58 364.125C427.757 363.731 426.933 364.52 426.604 366.645C426.274 368.771 425.237 369.594 424.701 369.745" fill="white"/>
<mask id="mask5_332_182" style="mask-type:luminance" maskUnits="userSpaceOnUse" x="424" y="364" width="5" height="6">
<path d="M427.757 369.266C427.757 369.266 429.404 364.52 428.58 364.125C427.757 363.731 426.933 364.52 426.604 366.645C426.274 368.771 425.237 369.594 424.701 369.745" fill="white"/>
</mask>
<g mask="url(#mask5_332_182)">
<path opacity="0.1" d="M428.885 368.241C428.885 368.241 429.42 364.52 428.58 364.125C427.74 363.731 426.933 364.52 426.604 366.645C426.274 368.771 425.237 369.594 424.701 369.745" fill="black"/>
</g>
<path d="M427.757 369.266C427.757 369.266 429.404 364.52 428.58 364.125C427.757 363.731 426.933 364.52 426.604 366.645C426.274 368.771 425.237 369.594 424.701 369.745" stroke="#263238" stroke-miterlimit="10" stroke-linecap="round"/>
<path d="M426.505 370.115C426.505 370.115 428.58 364.125 426.175 365.713C424.405 366.881 424.858 369.711 423.944 369.711" fill="white"/>
<mask id="mask6_332_182" style="mask-type:luminance" maskUnits="userSpaceOnUse" x="423" y="365" width="5" height="6">
<path d="M426.505 370.115C426.505 370.115 428.58 364.125 426.175 365.713C424.405 366.881 424.858 369.711 423.944 369.711" fill="white"/>
</mask>
<g mask="url(#mask6_332_182)">
<path opacity="0.1" d="M426.983 370.182C426.983 370.182 428.58 364.125 426.159 365.713C424.388 366.881 424.841 369.711 423.927 369.711" fill="black"/>
</g>
<path d="M426.505 370.115C426.505 370.115 428.58 364.125 426.175 365.713C424.405 366.881 424.858 369.711 423.944 369.711" stroke="#263238" stroke-miterlimit="10" stroke-linecap="round"/>
<path d="M412.365 365.604C412.365 365.604 413.658 364.671 416.169 365.528C418.681 366.385 421.646 370.106 422.33 369.795C422.969 369.422 423.454 368.825 423.697 368.115C424.075 367.343 424.767 366.881 425.22 367.805C425.673 368.729 424.306 371.459 424.306 371.459C424.306 371.459 423.482 372.055 421.465 371.576C419.187 371.017 416.872 370.627 414.539 370.409" fill="white"/>
<mask id="mask7_332_182" style="mask-type:luminance" maskUnits="userSpaceOnUse" x="412" y="365" width="14" height="7">
<path d="M412.365 365.604C412.365 365.604 413.658 364.671 416.169 365.528C418.681 366.385 421.646 370.106 422.33 369.795C422.969 369.422 423.454 368.825 423.697 368.115C424.075 367.343 424.767 366.881 425.22 367.805C425.673 368.729 424.306 371.459 424.306 371.459C424.306 371.459 423.482 372.055 421.465 371.576C419.187 371.017 416.872 370.627 414.539 370.409" fill="white"/>
</mask>
<g mask="url(#mask7_332_182)">
<path opacity="0.1" d="M412.365 365.604C412.365 365.604 413.658 364.671 416.169 365.528C418.681 366.385 421.646 370.106 422.33 369.795C422.969 369.422 423.454 368.825 423.697 368.115C424.075 367.343 424.767 366.881 425.22 367.805C425.673 368.729 424.306 371.459 424.306 371.459C424.306 371.459 423.482 372.055 421.465 371.576C419.447 371.097 413.995 369.619 412.752 369.619" fill="black"/>
</g>
<path d="M412.365 365.604C412.365 365.604 413.658 364.671 416.169 365.528C418.681 366.385 421.646 370.106 422.33 369.795C422.969 369.422 423.454 368.825 423.697 368.115C424.075 367.343 424.767 366.881 425.22 367.805C425.673 368.729 424.306 371.459 424.306 371.459C424.306 371.459 423.482 372.055 421.465 371.576C419.187 371.017 416.872 370.627 414.539 370.409" stroke="#263238" stroke-miterlimit="10" stroke-linecap="round"/>
<path d="M340.155 337.943C340.155 337.943 339.752 342.621 337.866 345.78C335.98 348.938 332.101 350.173 332.101 350.173L324.426 374.231L328.436 390.493C328.436 390.493 321.288 401.581 318.48 408.318C315.671 415.055 319.048 422.673 322.013 425.832C324.977 428.99 328.914 433.274 338.961 432.871C352.962 432.308 362.844 433.61 367.333 428.251C371.821 422.892 372.274 412.77 366.937 405.134C363.709 400.489 359.303 390.451 359.303 390.451L363.668 373.693L356.981 350.173C356.981 350.173 352.953 349.938 350.532 346.914C348.111 343.89 348.646 338.388 348.646 338.388L340.155 337.943Z" fill="white"/>
<mask id="mask8_332_182" style="mask-type:luminance" maskUnits="userSpaceOnUse" x="317" y="337" width="54" height="96">
<path d="M340.155 337.943C340.155 337.943 339.752 342.621 337.866 345.78C335.98 348.938 332.101 350.173 332.101 350.173L324.426 374.231L328.436 390.493C328.436 390.493 321.288 401.581 318.48 408.318C315.671 415.055 319.048 422.673 322.013 425.832C324.977 428.99 328.914 433.274 338.961 432.871C352.962 432.308 362.844 433.61 367.333 428.251C371.821 422.892 372.274 412.77 366.937 405.134C363.709 400.489 359.303 390.451 359.303 390.451L363.668 373.693L356.981 350.173C356.981 350.173 352.953 349.938 350.532 346.914C348.111 343.89 348.646 338.388 348.646 338.388L340.155 337.943Z" fill="white"/>
</mask>
<g mask="url(#mask8_332_182)">
<path opacity="0.1" d="M340.155 337.943C340.155 337.943 339.752 342.621 337.866 345.78C335.98 348.938 332.101 350.173 332.101 350.173L324.426 374.231L328.436 390.493C328.436 390.493 321.288 401.581 318.48 408.318C315.671 415.055 319.048 422.673 322.013 425.832C324.977 428.99 328.914 433.274 338.961 432.871C352.962 432.308 362.844 433.61 367.333 428.251C371.821 422.892 372.274 412.77 366.937 405.134C363.709 400.489 359.303 390.451 359.303 390.451L363.668 373.693L356.981 350.173C356.981 350.173 352.953 349.938 350.532 346.914C348.111 343.89 348.646 338.388 348.646 338.388L340.155 337.943Z" fill="black"/>
</g>
<path d="M340.155 337.943C340.155 337.943 339.752 342.621 337.866 345.78C335.98 348.938 332.101 350.173 332.101 350.173L324.426 374.231L328.436 390.493C328.436 390.493 321.288 401.581 318.48 408.318C315.671 415.055 319.048 422.673 322.013 425.832C324.977 428.99 328.914 433.274 338.961 432.871C352.962 432.308 362.844 433.61 367.333 428.251C371.821 422.892 372.274 412.77 366.937 405.134C363.709 400.489 359.303 390.451 359.303 390.451L363.668 373.693L356.981 350.173C356.981 350.173 352.953 349.938 350.532 346.914C348.111 343.89 348.646 338.388 348.646 338.388L340.155 337.943Z" stroke="#263238" stroke-miterlimit="10" stroke-linecap="round"/>
<path d="M363.668 373.693L356.981 350.173C356.31 350.125 355.646 350.012 354.996 349.837C355.77 355.305 354.848 358.044 354.848 358.044C354.715 359.244 354.303 360.394 353.645 361.398C352.987 362.402 352.104 363.231 351.068 363.815C347.436 366.015 340.559 366.427 336.244 362.857C332.949 360.161 333.567 352.777 334.053 349.308C333.417 349.655 332.753 349.945 332.068 350.173L324.393 374.231L328.436 390.493H359.287L363.668 373.693Z" fill="#263238" stroke="#263238" stroke-miterlimit="10" stroke-linecap="round"/>
<path d="M333.625 327.031C333.625 327.031 331.154 323.738 330.281 326.191C329.408 328.644 333.748 330.819 333.748 330.819L333.625 327.031Z" fill="white"/>
<mask id="mask9_332_182" style="mask-type:luminance" maskUnits="userSpaceOnUse" x="330" y="325" width="4" height="6">
<path d="M333.625 327.031C333.625 327.031 331.154 323.738 330.281 326.191C329.408 328.644 333.748 330.819 333.748 330.819L333.625 327.031Z" fill="white"/>
</mask>
<g mask="url(#mask9_332_182)">
<path opacity="0.1" d="M333.625 327.031C333.625 327.031 331.154 323.738 330.281 326.191C329.408 328.644 333.748 330.819 333.748 330.819L333.625 327.031Z" fill="black"/>
</g>
<path d="M333.625 327.031C333.625 327.031 331.154 323.738 330.281 326.191C329.408 328.644 333.748 330.819 333.748 330.819L333.625 327.031Z" stroke="#263238" stroke-miterlimit="10" stroke-linecap="round"/>
<path d="M355.474 327.031C355.474 327.031 357.985 323.738 358.817 326.191C359.649 328.644 355.358 330.819 355.358 330.819L355.474 327.031Z" fill="white"/>
<mask id="mask10_332_182" style="mask-type:luminance" maskUnits="userSpaceOnUse" x="355" y="325" width="4" height="6">
<path d="M355.474 327.031C355.474 327.031 357.985 323.738 358.817 326.191C359.649 328.644 355.358 330.819 355.358 330.819L355.474 327.031Z" fill="white"/>
</mask>
<g mask="url(#mask10_332_182)">
<path opacity="0.1" d="M355.474 327.031C355.474 327.031 357.985 323.738 358.817 326.191C359.649 328.644 355.358 330.819 355.358 330.819L355.474 327.031Z" fill="black"/>
</g>
<path d="M355.474 327.031C355.474 327.031 357.985 323.738 358.817 326.191C359.649 328.644 355.358 330.819 355.358 330.819L355.474 327.031Z" stroke="#263238" stroke-miterlimit="10" stroke-linecap="round"/>
<path d="M344.66 341.227C341.786 341.227 339.029 340.062 336.997 337.989C334.964 335.916 333.822 333.104 333.822 330.173V313.213C333.821 312.672 333.925 312.136 334.127 311.635C334.329 311.135 334.627 310.68 335.001 310.297C335.376 309.914 335.821 309.61 336.312 309.403C336.802 309.195 337.327 309.089 337.858 309.089H351.422C351.959 309.079 352.493 309.178 352.992 309.381C353.491 309.583 353.946 309.886 354.329 310.27C354.712 310.654 355.017 311.112 355.225 311.617C355.433 312.122 355.539 312.665 355.539 313.213V330.198C355.535 331.651 355.25 333.088 354.701 334.429C354.152 335.769 353.35 336.986 352.339 338.011C351.329 339.035 350.131 339.846 348.813 340.398C347.496 340.95 346.085 341.231 344.66 341.227Z" fill="white"/>
<mask id="mask11_332_182" style="mask-type:luminance" maskUnits="userSpaceOnUse" x="333" y="309" width="23" height="33">
<path d="M344.66 341.227C341.786 341.227 339.029 340.062 336.997 337.989C334.964 335.916 333.822 333.104 333.822 330.173V313.213C333.821 312.672 333.925 312.136 334.127 311.635C334.329 311.135 334.627 310.68 335.001 310.297C335.376 309.914 335.821 309.61 336.312 309.403C336.802 309.195 337.327 309.089 337.858 309.089H351.422C351.959 309.079 352.493 309.178 352.992 309.381C353.491 309.583 353.946 309.886 354.329 310.27C354.712 310.654 355.017 311.112 355.225 311.617C355.433 312.122 355.539 312.665 355.539 313.213V330.198C355.535 331.651 355.25 333.088 354.701 334.429C354.152 335.769 353.35 336.986 352.339 338.011C351.329 339.035 350.131 339.846 348.813 340.398C347.496 340.95 346.085 341.231 344.66 341.227Z" fill="white"/>
</mask>
<g mask="url(#mask11_332_182)">
<path opacity="0.1" d="M344.66 341.227C341.786 341.227 339.029 340.062 336.997 337.989C334.964 335.916 333.822 333.104 333.822 330.173V313.213C333.821 312.672 333.925 312.136 334.127 311.635C334.329 311.135 334.627 310.68 335.001 310.297C335.376 309.914 335.821 309.61 336.312 309.403C336.802 309.195 337.327 309.089 337.858 309.089H351.422C351.959 309.079 352.493 309.178 352.992 309.381C353.491 309.583 353.946 309.886 354.329 310.27C354.712 310.654 355.017 311.112 355.225 311.617C355.433 312.122 355.539 312.665 355.539 313.213V330.198C355.535 331.651 355.25 333.088 354.701 334.429C354.152 335.769 353.35 336.986 352.339 338.011C351.329 339.035 350.131 339.846 348.813 340.398C347.496 340.95 346.085 341.231 344.66 341.227Z" fill="black"/>
</g>
<path d="M344.66 341.227C341.786 341.227 339.029 340.062 336.997 337.989C334.964 335.916 333.822 333.104 333.822 330.173V313.213C333.821 312.672 333.925 312.136 334.127 311.635C334.329 311.135 334.627 310.68 335.001 310.297C335.376 309.914 335.821 309.61 336.312 309.403C336.802 309.195 337.327 309.089 337.858 309.089H351.422C351.959 309.079 352.493 309.178 352.992 309.381C353.491 309.583 353.946 309.886 354.329 310.27C354.712 310.654 355.017 311.112 355.225 311.617C355.433 312.122 355.539 312.665 355.539 313.213V330.198C355.535 331.651 355.25 333.088 354.701 334.429C354.152 335.769 353.35 336.986 352.339 338.011C351.329 339.035 350.131 339.846 348.813 340.398C347.496 340.95 346.085 341.231 344.66 341.227Z" stroke="#263238" stroke-miterlimit="10" stroke-linecap="round"/>
<path d="M336.598 322.646C337.341 323.149 338.213 323.417 339.105 323.417C339.997 323.417 340.87 323.149 341.613 322.646" stroke="#263238" stroke-miterlimit="10" stroke-linecap="round"/>
<path d="M347.831 322.646C348.573 323.149 349.444 323.418 350.335 323.418C351.225 323.418 352.096 323.149 352.838 322.646" stroke="#263238" stroke-miterlimit="10" stroke-linecap="round"/>
<path d="M345.681 320.823L346.398 327.879H343.532" stroke="#263238" stroke-miterlimit="10" stroke-linecap="round"/>
<path d="M343.647 331.895H346.513" stroke="#263238" stroke-miterlimit="10" stroke-linecap="round"/>
<path d="M344.767 309.063H337.858C337.327 309.063 336.802 309.17 336.312 309.378C335.821 309.585 335.376 309.889 335.001 310.272C334.627 310.655 334.329 311.11 334.127 311.61C333.925 312.11 333.821 312.647 333.822 313.188V321.588C338.245 317.665 343.392 310.92 344.767 309.063Z" fill="#263238" stroke="#263238" stroke-miterlimit="10"/>
<path d="M355.539 321.907V313.213C355.539 312.119 355.113 311.07 354.355 310.297C353.597 309.523 352.568 309.089 351.496 309.089H345.311C346.736 313.692 352.245 319.093 355.539 321.907Z" fill="#263238" stroke="#263238" stroke-miterlimit="10"/>
<path d="M336.128 319.362C336.128 319.362 337.421 317.043 341.539 317.413" stroke="#263238" stroke-width="2" stroke-miterlimit="10" stroke-linecap="round"/>
<path d="M346.991 317.413C348.086 316.947 349.307 316.887 350.441 317.243C351.575 317.599 352.551 318.349 353.201 319.362" stroke="#263238" stroke-width="2" stroke-miterlimit="10" stroke-linecap="round"/>
<path d="M318.48 408.318C315.647 415.038 319.048 422.673 322.013 425.832C324.977 428.99 328.914 433.274 338.961 432.871C352.962 432.308 362.844 433.61 367.333 428.251C371.821 422.892 372.274 412.77 366.937 405.134C365.731 403.327 364.631 401.447 363.643 399.506H322.968C321.309 402.354 319.811 405.296 318.48 408.318Z" fill="#263238" stroke="#263238" stroke-miterlimit="10" stroke-linecap="round"/>
<path d="M340.518 421.951C333.427 414.45 320.555 410.695 314.246 409.62C307.938 408.545 296.384 402.06 296.384 402.06C296.384 402.06 289.548 401.825 290.075 410.132C290.602 418.44 310.302 428.091 317.928 432.375C321.353 434.347 325.192 435.451 329.123 435.598C333.053 435.744 336.961 434.927 340.518 433.215" fill="#263238"/>
<path d="M340.518 421.951C333.427 414.45 320.555 410.695 314.246 409.62C307.938 408.545 296.384 402.06 296.384 402.06C296.384 402.06 289.548 401.825 290.075 410.132C290.602 418.44 310.302 428.091 317.928 432.375C321.353 434.347 325.192 435.451 329.123 435.598C333.053 435.744 336.961 434.927 340.518 433.215" stroke="#263238" stroke-miterlimit="10" stroke-linecap="round"/>
<path d="M344.957 422.22C352.048 414.719 364.92 410.964 371.228 409.889C377.536 408.813 387.345 403.337 387.345 403.337C387.345 403.337 395.926 402.119 395.399 410.426C394.872 418.734 375.173 428.377 367.547 432.669C364.121 434.639 360.282 435.742 356.352 435.889C352.422 436.035 348.514 435.219 344.957 433.509" fill="#263238"/>
<path d="M344.957 422.22C352.048 414.719 364.92 410.964 371.228 409.889C377.536 408.813 387.345 403.337 387.345 403.337C387.345 403.337 395.926 402.119 395.399 410.426C394.872 418.734 375.173 428.377 367.547 432.669C364.121 434.639 360.282 435.742 356.352 435.889C352.422 436.035 348.514 435.219 344.957 433.509" stroke="#263238" stroke-miterlimit="10" stroke-linecap="round"/>
<path d="M374.555 435.332C374.555 435.332 375.527 434.677 375.041 433.022C374.555 431.367 371.961 432.686 370.174 432.686C368.387 432.686 361.576 432.023 358.339 431.695C355.564 431.409 351.026 431.493 349.766 431.519C349.949 433.554 349.54 435.599 348.589 437.399L349.223 437.466C354.741 438.02 357.137 438.129 358.825 438.491C361.905 439.154 365.307 441.8 368.708 441.641C372.109 441.481 375.198 439.121 375.198 437.667C375.231 436.839 375.006 436.022 374.555 435.332Z" fill="white"/>
<mask id="mask12_332_182" style="mask-type:luminance" maskUnits="userSpaceOnUse" x="348" y="431" width="28" height="11">
<path d="M374.555 435.332C374.555 435.332 375.527 434.677 375.041 433.022C374.555 431.367 371.961 432.686 370.174 432.686C368.387 432.686 361.576 432.023 358.339 431.695C355.564 431.409 351.026 431.493 349.766 431.519C349.949 433.554 349.54 435.599 348.589 437.399L349.223 437.466C354.741 438.02 357.137 438.129 358.825 438.491C361.905 439.154 365.307 441.8 368.708 441.641C372.109 441.481 375.198 439.121 375.198 437.667C375.231 436.839 375.006 436.022 374.555 435.332Z" fill="white"/>
</mask>
<g mask="url(#mask12_332_182)">
<path opacity="0.1" d="M374.555 435.332C374.555 435.332 375.527 434.677 375.041 433.022C374.555 431.367 371.961 432.686 370.174 432.686C368.387 432.686 361.576 432.023 358.339 431.695C355.564 431.409 351.026 431.493 349.766 431.519C349.949 433.554 349.54 435.599 348.589 437.399L349.223 437.466C354.741 438.02 357.137 438.129 358.825 438.491C361.905 439.154 365.307 441.8 368.708 441.641C372.109 441.481 375.198 439.121 375.198 437.667C375.231 436.839 375.006 436.022 374.555 435.332Z" fill="black"/>
</g>
<path d="M374.555 435.332C374.555 435.332 375.527 434.677 375.041 433.022C374.555 431.367 371.961 432.686 370.174 432.686C368.387 432.686 361.576 432.023 358.339 431.695C355.564 431.409 351.026 431.493 349.766 431.519C349.949 433.554 349.54 435.599 348.589 437.399L349.223 437.466C354.741 438.02 357.137 438.129 358.825 438.491C361.905 439.154 365.307 441.8 368.708 441.641C372.109 441.481 375.198 439.121 375.198 437.667C375.231 436.839 375.006 436.022 374.555 435.332Z" stroke="#263238" stroke-miterlimit="10" stroke-linecap="round"/>
<path d="M374.555 435.332C373.609 435.494 372.643 435.494 371.698 435.332" stroke="#263238" stroke-miterlimit="10" stroke-linecap="round"/>
<path d="M375.206 437.651C373.948 437.749 372.684 437.749 371.426 437.651" stroke="#263238" stroke-miterlimit="10" stroke-linecap="round"/>
<path d="M370.792 439.129C371.678 439.634 372.709 439.807 373.707 439.616" stroke="#263238" stroke-miterlimit="10" stroke-linecap="round"/>
<path d="M369.54 440.213C370.379 440.624 371.319 440.773 372.241 440.641" stroke="#263238" stroke-miterlimit="10" stroke-linecap="round"/>
<path d="M348.589 437.382C349.54 435.583 349.949 433.537 349.766 431.502H349.412C349.412 431.502 336.927 428.881 326.55 422.413C316.174 415.945 303.03 406.041 296.384 402.068C289.738 398.095 283.404 404.051 284.03 410.342C284.656 416.634 289.705 419.935 298.788 423.782C307.872 427.629 324.417 433.543 333.172 435.357C337.709 436.273 343.557 436.903 348.589 437.382Z" fill="#263238" stroke="#263238" stroke-miterlimit="10" stroke-linecap="round"/>
<path d="M334.004 439.129C333.055 437.329 332.649 435.284 332.834 433.249H333.18C333.18 433.249 345.665 430.603 356.05 424.152C366.435 417.701 379.562 407.772 386.217 403.799C392.871 399.825 399.188 405.789 398.57 412.073C397.952 418.356 392.896 421.665 383.812 425.471C374.728 429.276 358.191 435.231 349.429 437.054C344.883 438.012 339.068 438.642 334.004 439.129Z" fill="#263238" stroke="#263238" stroke-miterlimit="10" stroke-linecap="round"/>
<path d="M332.834 433.266C332.834 433.266 320.818 433.745 317.005 433.476C313.192 433.207 310.302 431.325 309.256 432.266C308.21 433.207 309.519 434.677 309.519 434.677C309.519 434.677 309.124 436.953 310.178 438.163C311.232 439.373 312.649 440.439 317.137 441.783C321.626 443.127 326.196 441.229 328.667 440.557L333.979 439.129C333.979 439.129 332.76 437.205 332.834 433.266Z" fill="white"/>
<mask id="mask13_332_182" style="mask-type:luminance" maskUnits="userSpaceOnUse" x="308" y="432" width="26" height="11">
<path d="M332.834 433.266C332.834 433.266 320.818 433.745 317.005 433.476C313.192 433.207 310.302 431.325 309.256 432.266C308.21 433.207 309.519 434.677 309.519 434.677C309.519 434.677 309.124 436.953 310.178 438.163C311.232 439.373 312.649 440.439 317.137 441.783C321.626 443.127 326.196 441.229 328.667 440.557L333.979 439.129C333.979 439.129 332.76 437.205 332.834 433.266Z" fill="white"/>
</mask>
<g mask="url(#mask13_332_182)">
<path opacity="0.1" d="M332.834 433.266C332.834 433.266 320.818 433.745 317.005 433.476C313.192 433.207 310.302 431.325 309.256 432.266C308.21 433.207 309.519 434.677 309.519 434.677C309.519 434.677 309.124 436.953 310.178 438.163C311.232 439.373 312.649 440.439 317.137 441.783C321.626 443.127 326.196 441.229 328.667 440.557L333.979 439.129C333.979 439.129 332.76 437.205 332.834 433.266Z" fill="black"/>
</g>
<path d="M332.834 433.266C332.834 433.266 320.818 433.745 317.005 433.476C313.192 433.207 310.302 431.325 309.256 432.266C308.21 433.207 309.519 434.677 309.519 434.677C309.519 434.677 309.124 436.953 310.178 438.163C311.232 439.373 312.649 440.439 317.137 441.783C321.626 443.127 326.196 441.229 328.667 440.557L333.979 439.129C333.979 439.129 332.76 437.205 332.834 433.266Z" stroke="#263238" stroke-miterlimit="10" stroke-linecap="round"/>
<path d="M309.519 434.677C309.791 434.491 310.11 434.392 310.438 434.392C310.765 434.392 311.084 434.491 311.356 434.677C311.985 435.115 312.703 435.402 313.456 435.517" stroke="#263238" stroke-miterlimit="10" stroke-linecap="round"/>
<path d="M309.668 437.281C309.877 437.088 310.131 436.95 310.405 436.88C310.679 436.809 310.966 436.809 311.241 436.878C311.868 437.06 312.516 437.156 313.168 437.163" stroke="#263238" stroke-miterlimit="10" stroke-linecap="round"/>
<path d="M311.677 439.406C311.677 439.406 311.908 438.726 312.344 438.726C312.781 438.726 314.584 438.969 315.054 438.927" stroke="#263238" stroke-miterlimit="10" stroke-linecap="round"/>
<path d="M314.23 440.733C314.23 440.733 314.666 440.129 315.054 440.095C315.55 440.024 316.051 439.982 316.552 439.969" stroke="#263238" stroke-miterlimit="10" stroke-linecap="round"/>
<path d="M338.945 432.871C338.945 432.871 364.08 420.271 374.234 413.106" stroke="white" stroke-miterlimit="10" stroke-linecap="round"/>
<path d="M310.573 411.493C310.573 411.493 332.052 428.621 344.158 429.813" stroke="white" stroke-miterlimit="10" stroke-linecap="round"/>
<path d="M320.629 411.031C320.629 411.031 336.968 416.197 341.218 422.867" stroke="white" stroke-miterlimit="10" stroke-linecap="round"/>
<path d="M346.942 420.531C346.942 420.531 357.071 413.198 367.53 411.031" stroke="white" stroke-miterlimit="10" stroke-linecap="round"/>
<path d="M445.692 162.842C481.44 128.451 524.83 118.53 553.249 113.187C581.668 107.845 648.572 108.455 649.592 144.926C650.611 181.397 577.191 216.847 555.765 188.242C534.34 159.636 602.93 95.6956 627.242 79.0278C651.554 62.3599 687.211 35.011 734.036 29.7255" stroke="#CBD9E7"/>
<path d="M240.05 195.188C240.05 195.188 147.812 212.765 79.5454 170.963C11.2789 129.161 148.309 98.4283 0.999946 23" stroke="#CBD9E7"/>
<path d="M10 493.075C81.5706 448.575 12.451 413.075 62.4524 372.075C112.454 331.075 207.064 341.075 207.064 341.075" stroke="#CBD9E7"/>
</svg>
